<svg width="25" height="21" viewBox="0 0 25 21" fill="none" xmlns="http://www.w3.org/2000/svg">
<path d="M24.1021 14.9673V11.6029C23.9358 9.8264 22.6693 9.84185 20.7382 9.92068V16.6495C23.8385 16.9717 23.9961 15.7524 24.1021 14.9673ZM3.91862 16.6495V9.92073C1.98745 9.8419 0.720991 9.82645 0.554688 11.6029V14.9673C0.660743 15.7524 0.818308 16.9717 3.91862 16.6495ZM15.6545 4.03294C15.1244 -0.320344 9.63531 -0.574813 9.00234 4.03294H15.6545ZM1.54267 2.18318C1.99577 1.32812 3.21077 1.27826 3.7244 2.09364C4.1672 2.79647 3.80502 3.6939 3.07739 3.95306L3.07762 9.07955H2.23663V3.9554C1.54616 3.7157 1.16734 2.89145 1.54267 2.18318ZM16.5333 11.1823C16.5333 12.1499 15.4788 12.7579 14.6397 12.2741C13.8006 11.7903 13.8006 10.5743 14.6397 10.0904C15.4788 9.60661 16.5333 10.2146 16.5333 11.1823ZM8.75284 12.2741C9.5919 12.7579 10.6465 12.1499 10.6465 11.1823C10.6465 10.2146 9.5919 9.60661 8.75284 10.0904C7.91373 10.5743 7.91373 11.7903 8.75284 12.2741ZM19.8972 8.23842V20.0139H4.75966V8.23847C4.75966 6.38047 6.26587 4.87408 8.12354 4.87408H16.5334C18.3911 4.87408 19.8972 6.38042 19.8972 8.23842ZM8.33137 13.0021C9.72987 13.8084 11.4874 12.7951 11.4874 11.1824C11.4874 9.56963 9.72987 8.55626 8.33137 9.36263C6.93287 10.169 6.93292 12.1958 8.33137 13.0021ZM16.5333 15.8084H8.12345V17.4906H16.5334L16.5333 15.8084ZM17.3743 11.1824C17.3743 9.56968 15.6167 8.55626 14.2182 9.36263C12.8197 10.169 12.8198 12.1958 14.2182 13.0021C15.6167 13.8084 17.3743 12.7951 17.3743 11.1824Z" fill="url(#paint0_linear_1036_2720)"/>
<defs>
<linearGradient id="paint0_linear_1036_2720" x1="0.554688" y1="10.3429" x2="24.1021" y2="10.3429" gradientUnits="userSpaceOnUse">
<stop stop-color="#FF094E"/>
<stop offset="1" stop-color="#F5444E"/>
</linearGradient>
</defs>
</svg>
