<?xml version="1.0" standalone="no"?>
<!DOCTYPE svg PUBLIC "-//W3C//DTD SVG 20010904//EN"
 "http://www.w3.org/TR/2001/REC-SVG-20010904/DTD/svg10.dtd">
<svg version="1.0" xmlns="http://www.w3.org/2000/svg"
 width="64.000000pt" height="64.000000pt" viewBox="0 0 64.000000 64.000000"
 preserveAspectRatio="xMidYMid meet">

<g transform="translate(0.000000,64.000000) scale(0.100000,-0.100000)"
fill="#000000" stroke="none">
<path d="M240 611 c-86 -28 -148 -81 -192 -164 -31 -58 -32 -182 -2 -248 51
-110 149 -174 269 -174 87 0 165 27 165 57 0 22 -1 22 -80 -7 -115 -43 -254
16 -316 135 -27 52 -26 172 3 225 25 47 74 95 123 121 52 27 172 26 225 -3 47
-25 96 -75 120 -122 39 -78 27 -215 -20 -227 -47 -12 -54 7 -57 144 -3 105 -6
127 -18 127 -8 0 -16 -10 -18 -22 l-3 -23 -31 23 c-41 30 -134 31 -174 1 -53
-39 -69 -71 -69 -134 0 -63 16 -95 69 -134 41 -31 133 -29 176 2 l32 24 19
-21 c43 -46 109 -35 139 24 23 46 19 169 -6 226 -50 108 -141 170 -259 175
-38 2 -81 0 -95 -5z m164 -210 c26 -27 31 -39 31 -81 0 -43 -5 -54 -33 -82
-47 -48 -117 -48 -164 0 -28 28 -33 39 -33 81 0 52 25 92 70 112 37 16 96 3
129 -30z"/>
</g>
</svg>
