<svg width="24" height="27" viewBox="0 0 24 27" fill="none" xmlns="http://www.w3.org/2000/svg">
<path d="M17.8072 3.19484V1.24437C17.8072 0.731743 17.3821 0.306641 16.8694 0.306641C16.3568 0.306641 15.9317 0.731743 15.9317 1.24437V3.11982H7.80474V1.24437C7.80474 0.731743 7.37964 0.306641 6.86702 0.306641C6.35439 0.306641 5.92929 0.731743 5.92929 1.24437V3.19484C2.55348 3.50741 0.915582 5.5204 0.665521 8.50862C0.640515 8.87121 0.940588 9.17128 1.29067 9.17128H22.4458C22.8084 9.17128 23.1084 8.8587 23.0709 8.50862C22.8209 5.5204 21.183 3.50741 17.8072 3.19484Z" fill="#FF094E"/>
<path d="M21.8723 11.0488H1.86749C1.17982 11.0488 0.617188 11.6114 0.617188 12.2991V20.0009C0.617188 23.7518 2.49264 26.2524 6.8687 26.2524H16.8711C21.2472 26.2524 23.1226 23.7518 23.1226 20.0009V12.2991C23.1226 11.6114 22.56 11.0488 21.8723 11.0488ZM8.38156 21.5138C8.31905 21.5638 8.25653 21.6263 8.19402 21.6638C8.119 21.7138 8.04398 21.7514 7.96896 21.7764C7.89394 21.8139 7.81893 21.8389 7.74391 21.8514C7.65639 21.8639 7.58137 21.8764 7.49385 21.8764C7.33131 21.8764 7.16877 21.8389 7.01873 21.7764C6.85619 21.7139 6.73116 21.6263 6.60613 21.5138C6.38108 21.2762 6.24355 20.9512 6.24355 20.6261C6.24355 20.301 6.38108 19.9759 6.60613 19.7384C6.73116 19.6258 6.85619 19.5383 7.01873 19.4758C7.24379 19.3758 7.49385 19.3508 7.74391 19.4008C7.81893 19.4133 7.89394 19.4383 7.96896 19.4758C8.04398 19.5008 8.119 19.5383 8.19402 19.5883C8.25653 19.6383 8.31905 19.6884 8.38156 19.7384C8.60662 19.9759 8.74415 20.301 8.74415 20.6261C8.74415 20.9512 8.60662 21.2762 8.38156 21.5138ZM8.38156 17.1377C8.144 17.3628 7.81893 17.5003 7.49385 17.5003C7.16877 17.5003 6.84369 17.3628 6.60613 17.1377C6.38108 16.9002 6.24355 16.5751 6.24355 16.25C6.24355 15.925 6.38108 15.5999 6.60613 15.3623C6.95622 15.0122 7.50635 14.8997 7.96896 15.0998C8.1315 15.1623 8.26903 15.2498 8.38156 15.3623C8.60662 15.5999 8.74415 15.925 8.74415 16.25C8.74415 16.5751 8.60662 16.9002 8.38156 17.1377ZM12.7576 21.5138C12.5201 21.7389 12.195 21.8764 11.8699 21.8764C11.5448 21.8764 11.2197 21.7389 10.9822 21.5138C10.7571 21.2762 10.6196 20.9512 10.6196 20.6261C10.6196 20.301 10.7571 19.9759 10.9822 19.7384C11.4448 19.2758 12.295 19.2758 12.7576 19.7384C12.9827 19.9759 13.1202 20.301 13.1202 20.6261C13.1202 20.9512 12.9827 21.2762 12.7576 21.5138ZM12.7576 17.1377C12.6951 17.1878 12.6326 17.2378 12.5701 17.2878C12.4951 17.3378 12.42 17.3753 12.345 17.4003C12.27 17.4378 12.195 17.4628 12.12 17.4753C12.0324 17.4878 11.9574 17.5003 11.8699 17.5003C11.5448 17.5003 11.2197 17.3628 10.9822 17.1377C10.7571 16.9002 10.6196 16.5751 10.6196 16.25C10.6196 15.925 10.7571 15.5999 10.9822 15.3623C11.0947 15.2498 11.2322 15.1623 11.3948 15.0998C11.8574 14.8997 12.4075 15.0122 12.7576 15.3623C12.9827 15.5999 13.1202 15.925 13.1202 16.25C13.1202 16.5751 12.9827 16.9002 12.7576 17.1377ZM17.1337 21.5138C16.8961 21.7389 16.571 21.8764 16.246 21.8764C15.9209 21.8764 15.5958 21.7389 15.3582 21.5138C15.1332 21.2762 14.9957 20.9512 14.9957 20.6261C14.9957 20.301 15.1332 19.9759 15.3582 19.7384C15.8209 19.2758 16.6711 19.2758 17.1337 19.7384C17.3587 19.9759 17.4963 20.301 17.4963 20.6261C17.4963 20.9512 17.3587 21.2762 17.1337 21.5138ZM17.1337 17.1377C17.0712 17.1878 17.0086 17.2378 16.9461 17.2878C16.8711 17.3378 16.7961 17.3753 16.7211 17.4003C16.6461 17.4378 16.571 17.4628 16.496 17.4753C16.4085 17.4878 16.321 17.5003 16.246 17.5003C15.9209 17.5003 15.5958 17.3628 15.3582 17.1377C15.1332 16.9002 14.9957 16.5751 14.9957 16.25C14.9957 15.925 15.1332 15.5999 15.3582 15.3623C15.4833 15.2498 15.6083 15.1623 15.7708 15.0998C15.9959 14.9997 16.246 14.9747 16.496 15.0247C16.571 15.0372 16.6461 15.0622 16.7211 15.0998C16.7961 15.1248 16.8711 15.1623 16.9461 15.2123C17.0086 15.2623 17.0712 15.3123 17.1337 15.3623C17.3587 15.5999 17.4963 15.925 17.4963 16.25C17.4963 16.5751 17.3587 16.9002 17.1337 17.1377Z" fill="#FF094E"/>
</svg>
