<svg width="18" height="17" viewBox="0 0 18 17" fill="none" xmlns="http://www.w3.org/2000/svg">
<path d="M14.3005 0.0625C15.2314 0.0625 16.1241 0.432271 16.7823 1.09047C17.4405 1.74866 17.8102 2.64137 17.8102 3.5722V10.5916C17.8102 11.5224 17.4405 12.4151 16.7823 13.0733C16.1241 13.7315 15.2314 14.1013 14.3005 14.1013H10.1556L5.97727 16.6081C5.85143 16.6836 5.70867 16.7264 5.56205 16.7324C5.41542 16.7385 5.26961 16.7077 5.13797 16.6428C5.00633 16.578 4.89306 16.4811 4.80853 16.3612C4.724 16.2412 4.6709 16.102 4.65411 15.9562L4.64884 15.8562V14.1013H3.77142C2.87097 14.1013 2.00496 13.7552 1.35252 13.1346C0.700084 12.514 0.311129 11.6664 0.266106 10.7671L0.261719 10.5916V3.5722C0.261719 2.64137 0.63149 1.74866 1.28969 1.09047C1.94788 0.432271 2.84059 0.0625 3.77142 0.0625H14.3005ZM10.7908 7.95933H5.52627C5.29356 7.95933 5.07039 8.05177 4.90584 8.21632C4.74129 8.38087 4.64884 8.60404 4.64884 8.83675C4.64884 9.06946 4.74129 9.29264 4.90584 9.45719C5.07039 9.62173 5.29356 9.71418 5.52627 9.71418H10.7908C11.0235 9.71418 11.2467 9.62173 11.4113 9.45719C11.5758 9.29264 11.6682 9.06946 11.6682 8.83675C11.6682 8.60404 11.5758 8.38087 11.4113 8.21632C11.2467 8.05177 11.0235 7.95933 10.7908 7.95933ZM12.5457 4.44963H5.52627C5.29356 4.44963 5.07039 4.54207 4.90584 4.70662C4.74129 4.87117 4.64884 5.09434 4.64884 5.32705C4.64884 5.55976 4.74129 5.78294 4.90584 5.94748C5.07039 6.11203 5.29356 6.20448 5.52627 6.20448H12.5457C12.7784 6.20448 13.0016 6.11203 13.1661 5.94748C13.3307 5.78294 13.4231 5.55976 13.4231 5.32705C13.4231 5.09434 13.3307 4.87117 13.1661 4.70662C13.0016 4.54207 12.7784 4.44963 12.5457 4.44963Z" fill="white"/>
</svg>
