<svg width="31" height="25" viewBox="0 0 31 25" fill="none" xmlns="http://www.w3.org/2000/svg">
<path fill-rule="evenodd" clip-rule="evenodd" d="M9.8127 12.7016C8.83113 11.5387 8.03627 9.36747 8.03627 7.8471V5.56655C8.03627 4.15172 8.59831 2.79484 9.59875 1.79441C10.5992 0.793972 11.9561 0.231934 13.3709 0.231934C14.7857 0.231934 16.1426 0.793972 17.143 1.79441C18.1435 2.79484 18.7055 4.15172 18.7055 5.56655V7.8471C18.7055 9.36747 17.9053 11.5453 16.9291 12.7043L16.4476 13.2751C15.6608 14.2073 15.9062 15.3929 17.0064 15.9291L24.5549 19.6126C25.3751 20.0127 26.0406 21.0703 26.0406 21.9905V22.9067C26.0399 23.2602 25.8989 23.5989 25.6486 23.8485C25.3983 24.0981 25.0591 24.2381 24.7056 24.2377H2.03483C1.68158 24.2377 1.34276 24.0976 1.09273 23.848C0.8427 23.5985 0.701878 23.26 0.701172 22.9067V21.9905C0.701172 21.077 1.36533 20.0127 2.18686 19.6113L9.73535 15.9277C10.8303 15.3943 11.085 14.21 10.2955 13.2737L9.8127 12.7016Z" fill="#989898"/>
<path fill-rule="evenodd" clip-rule="evenodd" d="M24.3687 10.565V6.89746H26.3692V10.565H30.0368V12.5655H26.3692V16.233H24.3687V12.5655H20.7012V10.565H24.3687Z" fill="#989898"/>
</svg>
