<svg width="16" height="16" viewBox="0 0 16 16" fill="none" xmlns="http://www.w3.org/2000/svg">
<g filter="url(#filter0_d_1036_1617)">
<path d="M8.90762 3.09075C8.90762 2.86336 8.8173 2.64529 8.65651 2.48451C8.49573 2.32373 8.27766 2.2334 8.05028 2.2334C7.82289 2.2334 7.60482 2.32373 7.44404 2.48451C7.28325 2.64529 7.19293 2.86336 7.19293 3.09075V7.3775H2.90618C2.67879 7.3775 2.46072 7.46782 2.29994 7.62861C2.13916 7.78939 2.04883 8.00746 2.04883 8.23485C2.04883 8.46223 2.13916 8.6803 2.29994 8.84108C2.46072 9.00187 2.67879 9.0922 2.90618 9.0922H7.19293V13.3789C7.19293 13.6063 7.28325 13.8244 7.44404 13.9852C7.60482 14.146 7.82289 14.2363 8.05028 14.2363C8.27766 14.2363 8.49573 14.146 8.65651 13.9852C8.8173 13.8244 8.90762 13.6063 8.90762 13.3789V9.0922H13.1944C13.4218 9.0922 13.6398 9.00187 13.8006 8.84108C13.9614 8.6803 14.0517 8.46223 14.0517 8.23485C14.0517 8.00746 13.9614 7.78939 13.8006 7.62861C13.6398 7.46782 13.4218 7.3775 13.1944 7.3775H8.90762V3.09075Z" fill="black"/>
<path d="M8.0498 2.66211C8.1635 2.66211 8.27312 2.70769 8.35352 2.78809C8.43373 2.86845 8.47852 2.97727 8.47852 3.09082V7.80664H13.1943C13.3079 7.80664 13.4167 7.85141 13.4971 7.93164C13.5774 8.01192 13.6229 8.12085 13.623 8.23438C13.623 8.34807 13.5775 8.45769 13.4971 8.53809C13.4167 8.61831 13.3079 8.66309 13.1943 8.66309H8.47852V13.3789C8.47852 13.4925 8.43374 13.6013 8.35352 13.6816C8.27312 13.762 8.1635 13.8076 8.0498 13.8076C7.93628 13.8075 7.82735 13.7619 7.74707 13.6816C7.66684 13.6013 7.62207 13.4925 7.62207 13.3789V8.66309H2.90625C2.79269 8.66309 2.68388 8.6183 2.60352 8.53809C2.52312 8.45769 2.47754 8.34807 2.47754 8.23438C2.47766 8.12085 2.52323 8.01192 2.60352 7.93164C2.68388 7.85142 2.79269 7.80664 2.90625 7.80664H7.62207V3.09082C7.62207 2.97726 7.66685 2.86845 7.74707 2.78809C7.82735 2.7078 7.93628 2.66223 8.0498 2.66211Z" stroke="#989898" stroke-width="0.85735"/>
</g>
<defs>
<filter id="filter0_d_1036_1617" x="0.715173" y="0.899743" width="14.6693" height="14.6702" filterUnits="userSpaceOnUse" color-interpolation-filters="sRGB">
<feFlood flood-opacity="0" result="BackgroundImageFix"/>
<feColorMatrix in="SourceAlpha" type="matrix" values="0 0 0 0 0 0 0 0 0 0 0 0 0 0 0 0 0 0 127 0" result="hardAlpha"/>
<feOffset/>
<feGaussianBlur stdDeviation="0.666827"/>
<feComposite in2="hardAlpha" operator="out"/>
<feColorMatrix type="matrix" values="0 0 0 0 0 0 0 0 0 0 0 0 0 0 0 0 0 0 0.25 0"/>
<feBlend mode="normal" in2="BackgroundImageFix" result="effect1_dropShadow_1036_1617"/>
<feBlend mode="normal" in="SourceGraphic" in2="effect1_dropShadow_1036_1617" result="shape"/>
</filter>
</defs>
</svg>
