<svg width="25" height="25" viewBox="0 0 25 25" fill="none" xmlns="http://www.w3.org/2000/svg">
<path d="M13.3342 12.8825L12.0319 12.8902L12.0242 11.5819L13.3265 11.5742L13.3342 12.8825ZM15.1236 12.8722L15.0686 4.07392C15.0686 3.26041 15.5359 2.54225 16.2884 2.20036C16.5625 2.0758 16.8434 2.01223 17.1234 2.01223C17.5718 2.01223 17.9962 2.1763 18.3493 2.48384C18.3939 2.52335 18.4377 2.56373 18.4807 2.60754C18.9712 3.09805 19.2409 3.7492 19.2409 4.44159C19.2409 4.53264 19.2375 4.61769 19.2281 4.70359C19.2023 4.97075 19.2959 5.23276 19.4858 5.42261C19.6516 5.58926 19.8826 5.68461 20.118 5.68461C20.1464 5.68461 20.1747 5.68375 20.2056 5.68032C20.2924 5.67173 20.38 5.66743 20.4668 5.66743C21.1592 5.66743 21.8112 5.93803 22.2983 6.4251C22.3421 6.46891 22.3842 6.51444 22.4228 6.55911C22.9331 7.14326 23.037 7.89491 22.708 8.6208C22.3653 9.37332 21.648 9.84063 20.8345 9.84063H16.6441V11.6283H20.8345C22.3584 11.6283 23.6993 10.7589 24.3342 9.36043C24.9475 8.01002 24.7302 6.48609 23.7672 5.38223C23.7011 5.30749 23.6332 5.23448 23.5636 5.16489C22.8618 4.46306 21.9649 4.02925 20.996 3.91242C20.88 2.94342 20.4453 2.04659 19.7435 1.34562C19.6722 1.27431 19.5983 1.20559 19.5244 1.14031C18.8527 0.554442 17.9971 0.231445 17.114 0.231445C16.5762 0.231445 16.0488 0.347415 15.5479 0.57506C14.1486 1.21075 13.2801 2.5517 13.2801 4.07907L13.3144 9.78737L4.5222 9.84235C3.7087 9.84235 2.9914 9.37503 2.64865 8.62252C2.31963 7.89663 2.42272 7.14497 2.9347 6.55911C2.97336 6.5153 3.01374 6.47235 3.05583 6.43025C3.54634 5.93974 4.19749 5.67001 4.88987 5.67001C4.98093 5.67001 5.06512 5.6743 5.15188 5.68289C5.18023 5.68547 5.20858 5.68719 5.23778 5.68719C5.4723 5.68719 5.70166 5.59269 5.87089 5.42604C6.06074 5.23705 6.15437 4.97505 6.1286 4.70531C6.05129 3.92616 6.32361 3.16248 6.87511 2.61098C6.9172 2.56888 6.96101 2.52851 7.00654 2.48813C7.36046 2.17888 7.78397 2.01566 8.23239 2.01566C8.51243 2.01566 8.79334 2.07923 9.06737 2.20293C9.81989 2.54483 10.2872 3.26299 10.2872 4.07649V8.26602H12.074V4.07649C12.074 2.55256 11.2047 1.21161 9.80614 0.576777C9.30446 0.348273 8.77701 0.233162 8.23926 0.233162C7.35617 0.233162 6.50057 0.556161 5.82794 1.14288C5.75235 1.20903 5.67933 1.27775 5.60975 1.34647C4.90705 2.05003 4.47324 2.94514 4.35727 3.91414C3.38742 4.03097 2.49058 4.46478 1.79047 5.16661C1.72088 5.23619 1.65302 5.30921 1.58602 5.38481C0.623036 6.48781 0.406559 8.01174 1.02077 9.36129C1.65646 10.7607 2.99741 11.6291 4.52478 11.6291L10.2331 11.5948L10.2881 20.3922C10.2881 21.2057 9.82074 21.923 9.06823 22.2657C8.7942 22.3903 8.51329 22.453 8.23239 22.4539C7.78397 22.4539 7.3596 22.2898 7.00396 21.9797C6.96015 21.9419 6.9172 21.9015 6.87511 21.8594C6.3846 21.3689 6.11486 20.7178 6.11486 20.0254C6.11486 19.9352 6.11915 19.8484 6.12774 19.7634C6.15352 19.4979 6.05988 19.2368 5.87003 19.0444C5.70166 18.876 5.47745 18.7832 5.2395 18.7832C5.20858 18.7832 5.17851 18.7849 5.15102 18.7875C5.06426 18.7961 4.97749 18.8004 4.89073 18.8004C4.19749 18.8004 3.54548 18.5306 3.05497 18.0401C3.01288 17.998 2.9725 17.9542 2.93213 17.9087C2.42186 17.3246 2.31792 16.5729 2.64693 15.847C2.98882 15.0945 3.70612 14.6272 4.52049 14.6272H8.71087V12.8395H4.52049C2.99655 12.8395 1.6556 13.7089 1.02077 15.1074C0.407418 16.4578 0.623895 17.9817 1.58773 19.0856C1.65302 19.1603 1.72174 19.2333 1.79047 19.3029C2.4923 20.0048 3.38913 20.4386 4.35813 20.5554C4.4741 21.5244 4.90877 22.4221 5.6106 23.1231C5.68019 23.1926 5.75321 23.2614 5.8288 23.3275C6.50057 23.9142 7.35703 24.2372 8.23926 24.2372C8.77787 24.2372 9.30446 24.1221 9.80528 23.8936C11.2047 23.2579 12.0731 21.917 12.0731 20.3905L12.0388 14.6822L20.831 14.628C21.6445 14.628 22.3618 15.0954 22.7037 15.847C23.0336 16.5729 22.9305 17.3237 22.4177 17.9104C22.3799 17.9542 22.3386 17.9972 22.2965 18.0393C21.806 18.5307 21.1549 18.8004 20.4625 18.8004C20.3757 18.8004 20.289 18.7961 20.1953 18.7866C20.1687 18.7849 20.1421 18.7832 20.1154 18.7832C19.8775 18.7832 19.6533 18.8751 19.4806 19.0452C19.2916 19.2342 19.198 19.4962 19.2238 19.7651C19.3011 20.5442 19.0288 21.3079 18.4773 21.8594C18.4352 21.9015 18.3914 21.9419 18.345 21.9823C17.991 22.2915 17.5667 22.4547 17.1183 22.4556C16.8382 22.4556 16.5573 22.392 16.2833 22.2675C15.5308 21.9256 15.0634 21.2083 15.0634 20.3939V16.2044H13.2767V20.3939C13.2767 21.9178 14.146 23.2588 15.5445 23.8936C16.0462 24.1213 16.5728 24.2372 17.1105 24.2372C17.9936 24.2372 18.8492 23.9142 19.5218 23.3275C19.5923 23.2665 19.6627 23.2004 19.74 23.1239C20.4436 22.4204 20.8774 21.5244 20.9934 20.5563C21.9624 20.4403 22.8584 20.0056 23.5585 19.3064C23.628 19.2376 23.6951 19.1655 23.7655 19.0856C24.7276 17.9826 24.9441 16.4595 24.3307 15.1091C23.6951 13.7097 22.3541 12.8412 20.8267 12.8412L15.1184 12.8756L15.1236 12.8722Z" fill="url(#paint0_linear_1036_1635)"/>
<defs>
<linearGradient id="paint0_linear_1036_1635" x1="0.675781" y1="12.2343" x2="24.6782" y2="12.2343" gradientUnits="userSpaceOnUse">
<stop stop-color="#FF094E"/>
<stop offset="1" stop-color="#F5444E"/>
</linearGradient>
</defs>
</svg>
