<svg width="19" height="20" viewBox="0 0 19 20" fill="none" xmlns="http://www.w3.org/2000/svg">
<path opacity="0.4" d="M18.4419 14.2229L17.2416 12.2304C16.9896 11.7863 16.7615 10.9461 16.7615 10.454V7.41724C16.7615 3.50429 13.5808 0.311523 9.6558 0.311523C5.73091 0.311523 2.55014 3.50429 2.55014 7.41724V10.454C2.55014 10.9461 2.32208 11.7863 2.07002 12.2184L0.857729 14.2229C0.377613 15.0271 0.269587 15.9153 0.569659 16.7315C0.857729 17.5357 1.54189 18.1598 2.43011 18.4599C4.75867 19.2521 7.20726 19.6362 9.6558 19.6362C12.1044 19.6362 14.553 19.2521 16.8815 18.4719C17.7218 18.1958 18.3699 17.5597 18.682 16.7315C18.9941 15.9033 18.91 14.9911 18.4419 14.2229Z" fill="#231F20"/>
<path opacity="0.4" d="M18.4419 14.2229L17.2416 12.2304C16.9896 11.7863 16.7615 10.9461 16.7615 10.454V7.41724C16.7615 3.50429 13.5808 0.311523 9.6558 0.311523C5.73091 0.311523 2.55014 3.50429 2.55014 7.41724V10.454C2.55014 10.9461 2.32208 11.7863 2.07002 12.2184L0.857729 14.2229C0.377613 15.0271 0.269587 15.9153 0.569659 16.7315C0.857729 17.5357 1.54189 18.1598 2.43011 18.4599C4.75867 19.2521 7.20726 19.6362 9.6558 19.6362C12.1044 19.6362 14.553 19.2521 16.8815 18.4719C17.7218 18.1958 18.3699 17.5597 18.682 16.7315C18.9941 15.9033 18.91 14.9911 18.4419 14.2229Z" fill="#231F20"/>
<path opacity="0.4" d="M18.4419 14.2229L17.2416 12.2304C16.9896 11.7863 16.7615 10.9461 16.7615 10.454V7.41724C16.7615 3.50429 13.5808 0.311523 9.6558 0.311523C5.73091 0.311523 2.55014 3.50429 2.55014 7.41724V10.454C2.55014 10.9461 2.32208 11.7863 2.07002 12.2184L0.857729 14.2229C0.377613 15.0271 0.269587 15.9153 0.569659 16.7315C0.857729 17.5357 1.54189 18.1598 2.43011 18.4599C4.75867 19.2521 7.20726 19.6362 9.6558 19.6362C12.1044 19.6362 14.553 19.2521 16.8815 18.4719C17.7218 18.1958 18.3699 17.5597 18.682 16.7315C18.9941 15.9033 18.91 14.9911 18.4419 14.2229Z" fill="#231F20"/>
<path opacity="0.4" d="M18.4419 14.2229L17.2416 12.2304C16.9896 11.7863 16.7615 10.9461 16.7615 10.454V7.41724C16.7615 3.50429 13.5808 0.311523 9.6558 0.311523C5.73091 0.311523 2.55014 3.50429 2.55014 7.41724V10.454C2.55014 10.9461 2.32208 11.7863 2.07002 12.2184L0.857729 14.2229C0.377613 15.0271 0.269587 15.9153 0.569659 16.7315C0.857729 17.5357 1.54189 18.1598 2.43011 18.4599C4.75867 19.2521 7.20726 19.6362 9.6558 19.6362C12.1044 19.6362 14.553 19.2521 16.8815 18.4719C17.7218 18.1958 18.3699 17.5597 18.682 16.7315C18.9941 15.9033 18.91 14.9911 18.4419 14.2229Z" fill="#231F20"/>
<path opacity="0.4" d="M18.4419 14.2229L17.2416 12.2304C16.9896 11.7863 16.7615 10.9461 16.7615 10.454V7.41724C16.7615 3.50429 13.5808 0.311523 9.6558 0.311523C5.73091 0.311523 2.55014 3.50429 2.55014 7.41724V10.454C2.55014 10.9461 2.32208 11.7863 2.07002 12.2184L0.857729 14.2229C0.377613 15.0271 0.269587 15.9153 0.569659 16.7315C0.857729 17.5357 1.54189 18.1598 2.43011 18.4599C4.75867 19.2521 7.20726 19.6362 9.6558 19.6362C12.1044 19.6362 14.553 19.2521 16.8815 18.4719C17.7218 18.1958 18.3699 17.5597 18.682 16.7315C18.9941 15.9033 18.91 14.9911 18.4419 14.2229Z" fill="#231F20"/>
<path opacity="0.4" d="M18.4419 14.2229L17.2416 12.2304C16.9896 11.7863 16.7615 10.9461 16.7615 10.454V7.41724C16.7615 3.50429 13.5808 0.311523 9.6558 0.311523C5.73091 0.311523 2.55014 3.50429 2.55014 7.41724V10.454C2.55014 10.9461 2.32208 11.7863 2.07002 12.2184L0.857729 14.2229C0.377613 15.0271 0.269587 15.9153 0.569659 16.7315C0.857729 17.5357 1.54189 18.1598 2.43011 18.4599C4.75867 19.2521 7.20726 19.6362 9.6558 19.6362C12.1044 19.6362 14.553 19.2521 16.8815 18.4719C17.7218 18.1958 18.3699 17.5597 18.682 16.7315C18.9941 15.9033 18.91 14.9911 18.4419 14.2229Z" fill="#231F20"/>
<path opacity="0.4" d="M18.4419 14.2229L17.2416 12.2304C16.9896 11.7863 16.7615 10.9461 16.7615 10.454V7.41724C16.7615 3.50429 13.5808 0.311523 9.6558 0.311523C5.73091 0.311523 2.55014 3.50429 2.55014 7.41724V10.454C2.55014 10.9461 2.32208 11.7863 2.07002 12.2184L0.857729 14.2229C0.377613 15.0271 0.269587 15.9153 0.569659 16.7315C0.857729 17.5357 1.54189 18.1598 2.43011 18.4599C4.75867 19.2521 7.20726 19.6362 9.6558 19.6362C12.1044 19.6362 14.553 19.2521 16.8815 18.4719C17.7218 18.1958 18.3699 17.5597 18.682 16.7315C18.9941 15.9033 18.91 14.9911 18.4419 14.2229Z" fill="#231F20"/>
<path opacity="0.4" d="M18.4419 14.2229L17.2416 12.2304C16.9896 11.7863 16.7615 10.9461 16.7615 10.454V7.41724C16.7615 3.50429 13.5808 0.311523 9.6558 0.311523C5.73091 0.311523 2.55014 3.50429 2.55014 7.41724V10.454C2.55014 10.9461 2.32208 11.7863 2.07002 12.2184L0.857729 14.2229C0.377613 15.0271 0.269587 15.9153 0.569659 16.7315C0.857729 17.5357 1.54189 18.1598 2.43011 18.4599C4.75867 19.2521 7.20726 19.6362 9.6558 19.6362C12.1044 19.6362 14.553 19.2521 16.8815 18.4719C17.7218 18.1958 18.3699 17.5597 18.682 16.7315C18.9941 15.9033 18.91 14.9911 18.4419 14.2229Z" fill="#231F20"/>
<path opacity="0.4" d="M18.4419 14.2229L17.2416 12.2304C16.9896 11.7863 16.7615 10.9461 16.7615 10.454V7.41724C16.7615 3.50429 13.5808 0.311523 9.6558 0.311523C5.73091 0.311523 2.55014 3.50429 2.55014 7.41724V10.454C2.55014 10.9461 2.32208 11.7863 2.07002 12.2184L0.857729 14.2229C0.377613 15.0271 0.269587 15.9153 0.569659 16.7315C0.857729 17.5357 1.54189 18.1598 2.43011 18.4599C4.75867 19.2521 7.20726 19.6362 9.6558 19.6362C12.1044 19.6362 14.553 19.2521 16.8815 18.4719C17.7218 18.1958 18.3699 17.5597 18.682 16.7315C18.9941 15.9033 18.91 14.9911 18.4419 14.2229Z" fill="#231F20"/>
<path opacity="0.4" d="M18.4419 14.2229L17.2416 12.2304C16.9896 11.7863 16.7615 10.9461 16.7615 10.454V7.41724C16.7615 3.50429 13.5808 0.311523 9.6558 0.311523C5.73091 0.311523 2.55014 3.50429 2.55014 7.41724V10.454C2.55014 10.9461 2.32208 11.7863 2.07002 12.2184L0.857729 14.2229C0.377613 15.0271 0.269587 15.9153 0.569659 16.7315C0.857729 17.5357 1.54189 18.1598 2.43011 18.4599C4.75867 19.2521 7.20726 19.6362 9.6558 19.6362C12.1044 19.6362 14.553 19.2521 16.8815 18.4719C17.7218 18.1958 18.3699 17.5597 18.682 16.7315C18.9941 15.9033 18.91 14.9911 18.4419 14.2229Z" fill="#231F20"/>
<path opacity="0.4" d="M18.4419 14.2229L17.2416 12.2304C16.9896 11.7863 16.7615 10.9461 16.7615 10.454V7.41724C16.7615 3.50429 13.5808 0.311523 9.6558 0.311523C5.73091 0.311523 2.55014 3.50429 2.55014 7.41724V10.454C2.55014 10.9461 2.32208 11.7863 2.07002 12.2184L0.857729 14.2229C0.377613 15.0271 0.269587 15.9153 0.569659 16.7315C0.857729 17.5357 1.54189 18.1598 2.43011 18.4599C4.75867 19.2521 7.20726 19.6362 9.6558 19.6362C12.1044 19.6362 14.553 19.2521 16.8815 18.4719C17.7218 18.1958 18.3699 17.5597 18.682 16.7315C18.9941 15.9033 18.91 14.9911 18.4419 14.2229Z" fill="#231F20"/>
<path opacity="0.4" d="M18.4419 14.2229L17.2416 12.2304C16.9896 11.7863 16.7615 10.9461 16.7615 10.454V7.41724C16.7615 3.50429 13.5808 0.311523 9.6558 0.311523C5.73091 0.311523 2.55014 3.50429 2.55014 7.41724V10.454C2.55014 10.9461 2.32208 11.7863 2.07002 12.2184L0.857729 14.2229C0.377613 15.0271 0.269587 15.9153 0.569659 16.7315C0.857729 17.5357 1.54189 18.1598 2.43011 18.4599C4.75867 19.2521 7.20726 19.6362 9.6558 19.6362C12.1044 19.6362 14.553 19.2521 16.8815 18.4719C17.7218 18.1958 18.3699 17.5597 18.682 16.7315C18.9941 15.9033 18.91 14.9911 18.4419 14.2229Z" fill="#231F20"/>
<path opacity="0.4" d="M18.4419 14.2229L17.2416 12.2304C16.9896 11.7863 16.7615 10.9461 16.7615 10.454V7.41724C16.7615 3.50429 13.5808 0.311523 9.6558 0.311523C5.73091 0.311523 2.55014 3.50429 2.55014 7.41724V10.454C2.55014 10.9461 2.32208 11.7863 2.07002 12.2184L0.857729 14.2229C0.377613 15.0271 0.269587 15.9153 0.569659 16.7315C0.857729 17.5357 1.54189 18.1598 2.43011 18.4599C4.75867 19.2521 7.20726 19.6362 9.6558 19.6362C12.1044 19.6362 14.553 19.2521 16.8815 18.4719C17.7218 18.1958 18.3699 17.5597 18.682 16.7315C18.9941 15.9033 18.91 14.9911 18.4419 14.2229Z" fill="#231F20"/>
<path opacity="0.4" d="M18.4419 14.2229L17.2416 12.2304C16.9896 11.7863 16.7615 10.9461 16.7615 10.454V7.41724C16.7615 3.50429 13.5808 0.311523 9.6558 0.311523C5.73091 0.311523 2.55014 3.50429 2.55014 7.41724V10.454C2.55014 10.9461 2.32208 11.7863 2.07002 12.2184L0.857729 14.2229C0.377613 15.0271 0.269587 15.9153 0.569659 16.7315C0.857729 17.5357 1.54189 18.1598 2.43011 18.4599C4.75867 19.2521 7.20726 19.6362 9.6558 19.6362C12.1044 19.6362 14.553 19.2521 16.8815 18.4719C17.7218 18.1958 18.3699 17.5597 18.682 16.7315C18.9941 15.9033 18.91 14.9911 18.4419 14.2229Z" fill="#231F20"/>
<path opacity="0.4" d="M18.4419 14.2229L17.2416 12.2304C16.9896 11.7863 16.7615 10.9461 16.7615 10.454V7.41724C16.7615 3.50429 13.5808 0.311523 9.6558 0.311523C5.73091 0.311523 2.55014 3.50429 2.55014 7.41724V10.454C2.55014 10.9461 2.32208 11.7863 2.07002 12.2184L0.857729 14.2229C0.377613 15.0271 0.269587 15.9153 0.569659 16.7315C0.857729 17.5357 1.54189 18.1598 2.43011 18.4599C4.75867 19.2521 7.20726 19.6362 9.6558 19.6362C12.1044 19.6362 14.553 19.2521 16.8815 18.4719C17.7218 18.1958 18.3699 17.5597 18.682 16.7315C18.9941 15.9033 18.91 14.9911 18.4419 14.2229Z" fill="#989898"/>
<path opacity="0.4" d="M18.4419 14.2229L17.2416 12.2304C16.9896 11.7863 16.7615 10.9461 16.7615 10.454V7.41724C16.7615 3.50429 13.5808 0.311523 9.6558 0.311523C5.73091 0.311523 2.55014 3.50429 2.55014 7.41724V10.454C2.55014 10.9461 2.32208 11.7863 2.07002 12.2184L0.857729 14.2229C0.377613 15.0271 0.269587 15.9153 0.569659 16.7315C0.857729 17.5357 1.54189 18.1598 2.43011 18.4599C4.75867 19.2521 7.20726 19.6362 9.6558 19.6362C12.1044 19.6362 14.553 19.2521 16.8815 18.4719C17.7218 18.1958 18.3699 17.5597 18.682 16.7315C18.9941 15.9033 18.91 14.9911 18.4419 14.2229Z" fill="#989898"/>
<path opacity="0.4" d="M18.4419 14.2229L17.2416 12.2304C16.9896 11.7863 16.7615 10.9461 16.7615 10.454V7.41724C16.7615 3.50429 13.5808 0.311523 9.6558 0.311523C5.73091 0.311523 2.55014 3.50429 2.55014 7.41724V10.454C2.55014 10.9461 2.32208 11.7863 2.07002 12.2184L0.857729 14.2229C0.377613 15.0271 0.269587 15.9153 0.569659 16.7315C0.857729 17.5357 1.54189 18.1598 2.43011 18.4599C4.75867 19.2521 7.20726 19.6362 9.6558 19.6362C12.1044 19.6362 14.553 19.2521 16.8815 18.4719C17.7218 18.1958 18.3699 17.5597 18.682 16.7315C18.9941 15.9033 18.91 14.9911 18.4419 14.2229Z" fill="#989898"/>
<path opacity="0.4" d="M18.4419 14.2229L17.2416 12.2304C16.9896 11.7863 16.7615 10.9461 16.7615 10.454V7.41724C16.7615 3.50429 13.5808 0.311523 9.6558 0.311523C5.73091 0.311523 2.55014 3.50429 2.55014 7.41724V10.454C2.55014 10.9461 2.32208 11.7863 2.07002 12.2184L0.857729 14.2229C0.377613 15.0271 0.269587 15.9153 0.569659 16.7315C0.857729 17.5357 1.54189 18.1598 2.43011 18.4599C4.75867 19.2521 7.20726 19.6362 9.6558 19.6362C12.1044 19.6362 14.553 19.2521 16.8815 18.4719C17.7218 18.1958 18.3699 17.5597 18.682 16.7315C18.9941 15.9033 18.91 14.9911 18.4419 14.2229Z" fill="#989898"/>
<path opacity="0.4" d="M18.4419 14.2229L17.2416 12.2304C16.9896 11.7863 16.7615 10.9461 16.7615 10.454V7.41724C16.7615 3.50429 13.5808 0.311523 9.6558 0.311523C5.73091 0.311523 2.55014 3.50429 2.55014 7.41724V10.454C2.55014 10.9461 2.32208 11.7863 2.07002 12.2184L0.857729 14.2229C0.377613 15.0271 0.269587 15.9153 0.569659 16.7315C0.857729 17.5357 1.54189 18.1598 2.43011 18.4599C4.75867 19.2521 7.20726 19.6362 9.6558 19.6362C12.1044 19.6362 14.553 19.2521 16.8815 18.4719C17.7218 18.1958 18.3699 17.5597 18.682 16.7315C18.9941 15.9033 18.91 14.9911 18.4419 14.2229Z" fill="#989898"/>
<path opacity="0.4" d="M18.4419 14.2229L17.2416 12.2304C16.9896 11.7863 16.7615 10.9461 16.7615 10.454V7.41724C16.7615 3.50429 13.5808 0.311523 9.6558 0.311523C5.73091 0.311523 2.55014 3.50429 2.55014 7.41724V10.454C2.55014 10.9461 2.32208 11.7863 2.07002 12.2184L0.857729 14.2229C0.377613 15.0271 0.269587 15.9153 0.569659 16.7315C0.857729 17.5357 1.54189 18.1598 2.43011 18.4599C4.75867 19.2521 7.20726 19.6362 9.6558 19.6362C12.1044 19.6362 14.553 19.2521 16.8815 18.4719C17.7218 18.1958 18.3699 17.5597 18.682 16.7315C18.9941 15.9033 18.91 14.9911 18.4419 14.2229Z" fill="#989898"/>
<path opacity="0.4" d="M18.4419 14.2229L17.2416 12.2304C16.9896 11.7863 16.7615 10.9461 16.7615 10.454V7.41724C16.7615 3.50429 13.5808 0.311523 9.6558 0.311523C5.73091 0.311523 2.55014 3.50429 2.55014 7.41724V10.454C2.55014 10.9461 2.32208 11.7863 2.07002 12.2184L0.857729 14.2229C0.377613 15.0271 0.269587 15.9153 0.569659 16.7315C0.857729 17.5357 1.54189 18.1598 2.43011 18.4599C4.75867 19.2521 7.20726 19.6362 9.6558 19.6362C12.1044 19.6362 14.553 19.2521 16.8815 18.4719C17.7218 18.1958 18.3699 17.5597 18.682 16.7315C18.9941 15.9033 18.91 14.9911 18.4419 14.2229Z" fill="#989898"/>
<path opacity="0.4" d="M18.4419 14.2229L17.2416 12.2304C16.9896 11.7863 16.7615 10.9461 16.7615 10.454V7.41724C16.7615 3.50429 13.5808 0.311523 9.6558 0.311523C5.73091 0.311523 2.55014 3.50429 2.55014 7.41724V10.454C2.55014 10.9461 2.32208 11.7863 2.07002 12.2184L0.857729 14.2229C0.377613 15.0271 0.269587 15.9153 0.569659 16.7315C0.857729 17.5357 1.54189 18.1598 2.43011 18.4599C4.75867 19.2521 7.20726 19.6362 9.6558 19.6362C12.1044 19.6362 14.553 19.2521 16.8815 18.4719C17.7218 18.1958 18.3699 17.5597 18.682 16.7315C18.9941 15.9033 18.91 14.9911 18.4419 14.2229Z" fill="#989898"/>
<path opacity="0.4" d="M18.4419 14.2229L17.2416 12.2304C16.9896 11.7863 16.7615 10.9461 16.7615 10.454V7.41724C16.7615 3.50429 13.5808 0.311523 9.6558 0.311523C5.73091 0.311523 2.55014 3.50429 2.55014 7.41724V10.454C2.55014 10.9461 2.32208 11.7863 2.07002 12.2184L0.857729 14.2229C0.377613 15.0271 0.269587 15.9153 0.569659 16.7315C0.857729 17.5357 1.54189 18.1598 2.43011 18.4599C4.75867 19.2521 7.20726 19.6362 9.6558 19.6362C12.1044 19.6362 14.553 19.2521 16.8815 18.4719C17.7218 18.1958 18.3699 17.5597 18.682 16.7315C18.9941 15.9033 18.91 14.9911 18.4419 14.2229Z" fill="#989898"/>
<path opacity="0.4" d="M18.4419 14.2229L17.2416 12.2304C16.9896 11.7863 16.7615 10.9461 16.7615 10.454V7.41724C16.7615 3.50429 13.5808 0.311523 9.6558 0.311523C5.73091 0.311523 2.55014 3.50429 2.55014 7.41724V10.454C2.55014 10.9461 2.32208 11.7863 2.07002 12.2184L0.857729 14.2229C0.377613 15.0271 0.269587 15.9153 0.569659 16.7315C0.857729 17.5357 1.54189 18.1598 2.43011 18.4599C4.75867 19.2521 7.20726 19.6362 9.6558 19.6362C12.1044 19.6362 14.553 19.2521 16.8815 18.4719C17.7218 18.1958 18.3699 17.5597 18.682 16.7315C18.9941 15.9033 18.91 14.9911 18.4419 14.2229Z" fill="#989898"/>
<path opacity="0.4" d="M18.4419 14.2229L17.2416 12.2304C16.9896 11.7863 16.7615 10.9461 16.7615 10.454V7.41724C16.7615 3.50429 13.5808 0.311523 9.6558 0.311523C5.73091 0.311523 2.55014 3.50429 2.55014 7.41724V10.454C2.55014 10.9461 2.32208 11.7863 2.07002 12.2184L0.857729 14.2229C0.377613 15.0271 0.269587 15.9153 0.569659 16.7315C0.857729 17.5357 1.54189 18.1598 2.43011 18.4599C4.75867 19.2521 7.20726 19.6362 9.6558 19.6362C12.1044 19.6362 14.553 19.2521 16.8815 18.4719C17.7218 18.1958 18.3699 17.5597 18.682 16.7315C18.9941 15.9033 18.91 14.9911 18.4419 14.2229Z" fill="#989898"/>
<path opacity="0.4" d="M18.4419 14.2229L17.2416 12.2304C16.9896 11.7863 16.7615 10.9461 16.7615 10.454V7.41724C16.7615 3.50429 13.5808 0.311523 9.6558 0.311523C5.73091 0.311523 2.55014 3.50429 2.55014 7.41724V10.454C2.55014 10.9461 2.32208 11.7863 2.07002 12.2184L0.857729 14.2229C0.377613 15.0271 0.269587 15.9153 0.569659 16.7315C0.857729 17.5357 1.54189 18.1598 2.43011 18.4599C4.75867 19.2521 7.20726 19.6362 9.6558 19.6362C12.1044 19.6362 14.553 19.2521 16.8815 18.4719C17.7218 18.1958 18.3699 17.5597 18.682 16.7315C18.9941 15.9033 18.91 14.9911 18.4419 14.2229Z" fill="#989898"/>
<path opacity="0.4" d="M18.4419 14.2229L17.2416 12.2304C16.9896 11.7863 16.7615 10.9461 16.7615 10.454V7.41724C16.7615 3.50429 13.5808 0.311523 9.6558 0.311523C5.73091 0.311523 2.55014 3.50429 2.55014 7.41724V10.454C2.55014 10.9461 2.32208 11.7863 2.07002 12.2184L0.857729 14.2229C0.377613 15.0271 0.269587 15.9153 0.569659 16.7315C0.857729 17.5357 1.54189 18.1598 2.43011 18.4599C4.75867 19.2521 7.20726 19.6362 9.6558 19.6362C12.1044 19.6362 14.553 19.2521 16.8815 18.4719C17.7218 18.1958 18.3699 17.5597 18.682 16.7315C18.9941 15.9033 18.91 14.9911 18.4419 14.2229Z" fill="#989898"/>
</svg>
