<svg width="23" height="25" viewBox="0 0 23 25" fill="none" xmlns="http://www.w3.org/2000/svg">
<path d="M10.1121 24.2372C9.57199 24.2372 9.10708 24.0572 8.71738 23.6971C8.32769 23.337 8.09243 22.8969 8.01161 22.3768L7.74155 20.3963C7.48148 20.2963 7.23662 20.1763 7.00697 20.0362C6.77731 19.8962 6.55206 19.7462 6.33121 19.5861L4.47076 20.3663C3.97064 20.5864 3.47052 20.6064 2.9704 20.4263C2.47028 20.2463 2.08018 19.9262 1.80011 19.4661L0.389774 17.0055C0.109706 16.5454 0.0296873 16.0553 0.149716 15.5351C0.269745 15.015 0.53981 14.5849 0.959911 14.2448L2.55029 13.0445C2.53029 12.9045 2.52029 12.7693 2.52029 12.6388V11.8286C2.52029 11.699 2.53029 11.5642 2.55029 11.4241L0.959911 10.2239C0.53981 9.88377 0.269745 9.45367 0.149716 8.93354C0.0296873 8.41342 0.109706 7.9233 0.389774 7.46319L1.80011 5.0026C2.08018 4.54248 2.47028 4.22241 2.9704 4.04236C3.47052 3.86232 3.97064 3.88233 4.47076 4.10238L6.33121 4.88257C6.55126 4.72253 6.78131 4.57249 7.02137 4.43246C7.26143 4.29242 7.50149 4.1724 7.74155 4.07237L8.01161 2.09189C8.09163 1.57177 8.32689 1.13166 8.71738 0.771576C9.10788 0.411489 9.57279 0.231445 10.1121 0.231445H12.9328C13.4729 0.231445 13.9382 0.411489 14.3287 0.771576C14.7192 1.13166 14.9541 1.57177 15.0333 2.09189L15.3034 4.07237C15.5634 4.1724 15.8087 4.29242 16.0391 4.43246C16.2696 4.57249 16.4945 4.72253 16.7137 4.88257L18.5742 4.10238C19.0743 3.88233 19.5744 3.86232 20.0745 4.04236C20.5746 4.22241 20.9647 4.54248 21.2448 5.0026L22.6551 7.46319C22.9352 7.9233 23.0152 8.41342 22.8952 8.93354C22.7752 9.45367 22.5051 9.88377 22.085 10.2239L20.4946 11.4241C20.5146 11.5642 20.5246 11.6994 20.5246 11.8298V12.6388C20.5246 12.7693 20.5046 12.9045 20.4646 13.0445L22.055 14.2448C22.4751 14.5849 22.7452 15.015 22.8652 15.5351C22.9852 16.0553 22.9052 16.5454 22.6251 17.0055L21.1848 19.4661C20.9047 19.9262 20.5146 20.2463 20.0145 20.4263C19.5144 20.6064 19.0143 20.5864 18.5141 20.3663L16.7137 19.5861C16.4937 19.7462 16.2636 19.8962 16.0235 20.0362C15.7835 20.1763 15.5434 20.2963 15.3034 20.3963L15.0333 22.3768C14.9533 22.8969 14.7184 23.337 14.3287 23.6971C13.939 24.0572 13.4737 24.2372 12.9328 24.2372H10.1121ZM11.5825 16.4354C12.7428 16.4354 13.733 16.0253 14.5532 15.2051C15.3734 14.3849 15.7835 13.3946 15.7835 12.2343C15.7835 11.0741 15.3734 10.0838 14.5532 9.26362C13.733 8.44343 12.7428 8.03333 11.5825 8.03333C10.4022 8.03333 9.40675 8.44343 8.59615 9.26362C7.78556 10.0838 7.38066 11.0741 7.38146 12.2343C7.38226 13.3946 7.78756 14.3849 8.59735 15.2051C9.40715 16.0253 10.4022 16.4354 11.5825 16.4354Z" fill="#989898"/>
</svg>
